<svg width="72" height="70" viewBox="0 0 72 70" fill="none" xmlns="http://www.w3.org/2000/svg">
<path id="Star 1" d="M33.2585 2.16976C34.3141 -0.205978 37.6859 -0.205978 38.7415 2.16976L42.7399 11.1681C43.4301 12.7213 45.2715 13.3915 46.7986 12.6453L55.6455 8.32231C57.9813 7.18095 60.5642 9.34827 59.8458 11.8468L57.1247 21.31C56.6551 22.9434 57.6348 24.6405 59.2843 25.0504L68.8402 27.4256C71.3632 28.0526 71.9487 31.3732 69.7924 32.8253L61.625 38.3255C60.2153 39.2749 59.875 41.2047 60.875 42.579L66.6686 50.5409C68.1982 52.643 66.5124 55.563 63.9271 55.2894L54.1351 54.2529C52.4449 54.074 50.9438 55.3336 50.8265 57.0292L50.1468 66.8524C49.9674 69.4459 46.799 70.5991 44.9944 68.7277L38.1595 61.6396C36.9798 60.4161 35.0202 60.4161 33.8405 61.6396L27.0056 68.7277C25.201 70.5991 22.0326 69.4459 21.8532 66.8524L21.1735 57.0292C21.0562 55.3336 19.5551 54.074 17.8649 54.2529L8.07291 55.2894C5.48763 55.563 3.80177 52.643 5.33138 50.5409L11.125 42.579C12.125 41.2047 11.7847 39.2749 10.375 38.3255L2.20765 32.8253C0.0513234 31.3732 0.636821 28.0526 3.15978 27.4256L12.7157 25.0504C14.3652 24.6405 15.3449 22.9434 14.8753 21.31L12.1542 11.8468C11.4358 9.34827 14.0187 7.18095 16.3545 8.32231L25.2014 12.6453C26.7285 13.3915 28.5699 12.7213 29.2601 11.1681L33.2585 2.16976Z" fill="#66ACDC"/>
</svg>
