<svg width="60" height="60" viewBox="0 0 60 60" fill="none" xmlns="http://www.w3.org/2000/svg">
<g id="healthicons:world-care-outline">
<path id="Vector" fill-rule="evenodd" clip-rule="evenodd" d="M29.9401 32.5H30.0401C36.9438 32.5 42.5401 26.9037 42.5401 20C42.5401 13.0963 36.9438 7.5 30.0401 7.5H29.9401C23.0826 7.55375 17.5401 13.13 17.5401 20C17.5401 26.87 23.0826 32.4463 29.9401 32.5ZM39.9626 21.25H37.4626C37.3951 22.3912 37.2351 23.4875 36.9951 24.5187H38.9626C39.4823 23.4951 39.8206 22.3892 39.9626 21.25ZM37.1626 27.0187H36.2063C36.0226 27.4725 35.8188 27.9037 35.6013 28.3125C36.1644 27.9351 36.6879 27.5016 37.1638 27.0187M34.4176 24.5187C34.6901 23.5225 34.8801 22.4237 34.9588 21.25H31.2913V24.5187H34.4176ZM31.2913 27.0187H33.4588C33.3626 27.2038 33.2638 27.3813 33.1613 27.5525C32.5363 28.5912 31.8901 29.2337 31.2913 29.5975V27.0187ZM28.7913 24.5187V21.25H25.0438C25.1226 22.4237 25.3126 23.5225 25.5851 24.5187H28.7913ZM26.5438 27.0187H28.7913V29.6437C28.1713 29.29 27.4938 28.6388 26.8413 27.5525C26.7367 27.3777 26.6374 27.1997 26.5438 27.0187ZM23.0063 24.5187C22.7584 23.4443 22.6016 22.3508 22.5376 21.25H20.1176C20.2626 22.4125 20.6076 23.515 21.1176 24.5187H23.0063ZM22.9188 27.0187H23.7938C23.9663 27.4412 24.1538 27.8438 24.3551 28.2262C23.8393 27.8694 23.3593 27.4652 22.9188 27.0187ZM37.4626 18.75C37.399 17.6492 37.2426 16.5557 36.9951 15.4813H38.9626C39.4827 16.5047 39.821 17.6107 39.9626 18.75H37.4626ZM37.1626 12.9813H36.2063C36.0226 12.5275 35.8188 12.0963 35.6013 11.6875C36.1651 12.0663 36.6888 12.5 37.1638 12.9813M31.2913 12.9813H33.4588C33.3652 12.8003 33.266 12.6223 33.1613 12.4475C32.5363 11.4075 31.8901 10.7662 31.2913 10.4025V12.9813ZM34.4176 15.4813H31.2913V18.75H34.9588C34.8872 17.6452 34.7058 16.5502 34.4176 15.4813ZM28.7913 10.3562V12.9813H26.5438C26.6401 12.7963 26.7401 12.6188 26.8413 12.4475C27.4926 11.3613 28.1713 10.7112 28.7913 10.3562ZM28.7913 15.48H25.5851C25.3126 16.4762 25.1226 17.575 25.0438 18.7487H28.7913V15.48ZM24.3538 11.7725C24.1538 12.155 23.9663 12.5575 23.7951 12.98H22.9188C23.3576 12.5337 23.8376 12.13 24.3538 11.7725ZM23.0076 15.48H21.1201C20.6003 16.5036 20.262 17.6096 20.1201 18.7487H22.5401C22.6076 17.6062 22.7676 16.5112 23.0076 15.48ZM10.9126 21.25C9.61505 21.22 8.31256 22.0162 7.89131 23.2562C7.78631 23.5662 7.72881 23.9713 7.68756 24.34C7.64381 24.7425 7.61006 25.2262 7.58381 25.7525C7.52962 26.9576 7.5017 28.1637 7.50006 29.37C7.49006 31.8925 7.55381 34.5175 7.64506 35.3312C7.80506 36.7562 8.62506 38.0838 9.33756 39.2388L9.41756 39.3675C9.63381 39.7175 9.84755 40.0662 10.0576 40.425C11.0001 42.0387 12.0251 43.1263 12.9538 44.1125L12.9751 44.1338C13.4976 44.6875 13.9813 45.2025 14.4376 45.7762C13.9949 46.2408 13.7487 46.8583 13.7501 47.5V50C13.7501 50.663 14.0134 51.2989 14.4823 51.7678C14.9511 52.2366 15.587 52.5 16.2501 52.5H26.2501C26.9131 52.5 27.549 52.2366 28.0178 51.7678C28.4867 51.2989 28.7501 50.663 28.7501 50V47.5C28.75 46.8673 28.5101 46.2581 28.0786 45.7953C27.6471 45.3325 27.0562 45.0505 26.4251 45.0063C26.2563 43.5863 26.0376 41.6687 26.0176 41.1225C26.0001 40.6525 25.8426 40.1937 25.6951 39.845C25.5402 39.4856 25.3624 39.1365 25.1626 38.8C24.9571 38.4504 24.7369 38.1097 24.5026 37.7787L24.4538 37.7113L24.4413 37.6925L24.4363 37.6863L24.4338 37.6825L24.4213 37.665L20.3663 32.5525L20.3288 32.515V32.5125L20.3238 32.5075L20.2938 32.475C20.1074 32.2687 19.9281 32.0561 19.7563 31.8375C19.3738 31.3598 19.0404 30.8446 18.7613 30.3C18.4763 29.715 17.9363 29.1538 17.1076 29.1125C16.4013 29.075 15.8476 29.45 15.5251 29.7388C15.3474 29.8988 15.1855 30.0755 15.0413 30.2662L14.9851 29.5138L14.9788 29.4312C14.8563 27.7838 14.7076 25.79 14.2238 24.1937C13.6563 22.3262 12.3951 21.2862 10.9113 21.2512M23.9051 45.0013C23.7426 43.6262 23.5401 41.83 23.5176 41.215C23.513 41.1781 23.5051 41.1417 23.4938 41.1062C23.4653 41.0071 23.4307 40.9098 23.3901 40.815C23.2773 40.5571 23.1483 40.3066 23.0038 40.065C22.8353 39.7783 22.6547 39.4989 22.4626 39.2275L22.4301 39.1812L18.4701 34.1887L18.4476 34.1637C18.219 33.9106 17.9992 33.6496 17.7888 33.3813C17.452 32.9542 17.1426 32.5063 16.8626 32.04L16.8538 32.0537C16.7413 32.2625 16.6788 32.4537 16.6601 32.5788C16.5913 33.0212 16.6263 33.3262 16.6613 33.4912C16.6719 33.544 16.6865 33.5958 16.7051 33.6462V33.65L18.9951 38.1975L16.8688 39.4963L16.8376 39.4538L16.7513 39.335C16.3051 38.7195 15.8634 38.1008 15.4263 37.4788C14.6676 36.3988 13.7601 35.0737 13.3126 34.2788C12.9776 33.685 12.8226 32.8988 12.7238 32.1875C12.6219 31.37 12.5448 30.5496 12.4926 29.7275L12.4901 29.7C12.3601 27.9525 12.2251 26.225 11.8301 24.9212C11.6576 24.3525 11.4351 24.0662 11.2751 23.9275C11.1601 23.8199 11.0099 23.7577 10.8526 23.7525C10.5113 23.7438 10.2851 23.98 10.2563 24.065C10.2538 24.0725 10.2426 24.115 10.2263 24.2075C10.2037 24.3415 10.1854 24.4761 10.1713 24.6112C10.1351 24.9462 10.1038 25.3762 10.0788 25.8787C10.0272 27.0455 10.0009 28.2133 10.0001 29.3812C9.98881 31.93 10.0576 34.4087 10.1301 35.0537C10.2201 35.86 10.7226 36.7212 11.5451 38.0575L11.5488 38.0625C11.7613 38.4075 11.9901 38.7787 12.2163 39.1663C13.0076 40.5213 13.8601 41.43 14.7938 42.42L14.8151 42.4425C15.5101 43.18 16.2651 43.98 16.9776 45.0013H23.9051ZM17.2501 31.5575C17.2501 31.5575 17.2451 31.5588 17.2363 31.5662C17.2412 31.5639 17.2458 31.561 17.2501 31.5575ZM26.2501 50V47.5H16.2501V50H26.2501ZM52.1088 23.2562C51.6863 22.0162 50.3851 21.22 49.0876 21.2512C47.6051 21.2862 46.3438 22.3262 45.7763 24.1937C45.2926 25.79 45.1438 27.7838 45.0213 29.4312L45.0151 29.5138L44.9588 30.2662C44.8088 30.07 44.6463 29.8913 44.4751 29.7388C44.1526 29.4513 43.6001 29.0763 42.8926 29.1112C42.0638 29.1537 41.5238 29.715 41.2388 30.2987C40.9592 30.8434 40.6254 31.3585 40.2426 31.8363C40.0708 32.0553 39.8916 32.2684 39.7051 32.475L39.6763 32.5075L39.6713 32.5138L39.6338 32.5525L35.5801 37.665L35.5663 37.6825L35.5638 37.6863L35.5601 37.6925L35.5463 37.7113C35.2936 38.0627 35.0571 38.4256 34.8376 38.7987C34.6373 39.1356 34.459 39.4851 34.3038 39.845C34.1576 40.1937 34.0001 40.6525 33.9826 41.1225C33.9626 41.6687 33.7451 43.5863 33.5751 45.0063C32.9439 45.0505 32.353 45.3325 31.9215 45.7953C31.49 46.2581 31.2501 46.8673 31.2501 47.5V50C31.2501 50.663 31.5134 51.2989 31.9823 51.7678C32.4511 52.2366 33.087 52.5 33.7501 52.5H43.7501C44.4131 52.5 45.049 52.2366 45.5178 51.7678C45.9867 51.2989 46.2501 50.663 46.2501 50V47.5C46.2505 46.8579 46.0039 46.2402 45.5613 45.775C46.0188 45.2025 46.5013 44.6875 47.0238 44.1338L47.0451 44.1113C47.9738 43.1263 48.9988 42.0387 49.9413 40.425C50.1513 40.0662 50.3663 39.7188 50.5813 39.3675L50.6613 39.2388C51.3738 38.0838 52.1938 36.7562 52.3538 35.3312C52.4451 34.5175 52.5088 31.8925 52.4988 29.37C52.4976 28.1637 52.4701 26.9576 52.4163 25.7525C52.395 25.2808 52.3604 24.8098 52.3126 24.34C52.2726 23.9713 52.2151 23.565 52.1088 23.2562ZM43.0226 45C43.7351 43.9787 44.4888 43.1787 45.1851 42.4412L45.2051 42.4188C46.1388 41.4288 46.9926 40.5187 47.7826 39.165C48.0076 38.7775 48.2363 38.4075 48.4501 38.0612L48.4538 38.055C49.2776 36.72 49.7788 35.8587 49.8688 35.0525C49.9413 34.4075 50.0088 31.9287 49.9988 29.38C49.9938 28.1225 49.9701 26.88 49.9201 25.8775C49.8951 25.375 49.8638 24.945 49.8276 24.61C49.8134 24.4749 49.7951 24.3402 49.7726 24.2062C49.7649 24.1583 49.7548 24.1107 49.7426 24.0637C49.7138 23.9788 49.4876 23.7425 49.1476 23.7512C48.9897 23.7562 48.8391 23.8184 48.7238 23.9263C48.5638 24.0638 48.3413 24.3513 48.1688 24.92C47.7738 26.2225 47.6388 27.9513 47.5088 29.6988L47.5063 29.7262C47.4438 30.5812 47.3788 31.4438 47.2751 32.1863C47.1776 32.8975 47.0213 33.6838 46.6876 34.2788C46.2388 35.0725 45.3313 36.3975 44.5726 37.4788C44.1354 38.1003 43.6938 38.7187 43.2476 39.3337L43.1601 39.4525L43.1301 39.495L41.0038 38.195L43.2926 33.6488L43.2938 33.645C43.3124 33.5945 43.327 33.5427 43.3376 33.49C43.3726 33.325 43.4076 33.02 43.3388 32.5775C43.3032 32.3931 43.2377 32.2158 43.1451 32.0525L43.1363 32.0387C42.8288 32.5575 42.4901 33.0225 42.2113 33.3787C42.0005 33.6476 41.7804 33.9091 41.5513 34.1625L41.5276 34.1875L37.5688 39.18L37.5363 39.2262C37.3442 39.4977 37.1636 39.7771 36.9951 40.0637C36.8451 40.3187 36.7076 40.58 36.6088 40.8138C36.5601 40.93 36.5263 41.0262 36.5051 41.1037C36.4938 41.1396 36.4859 41.1764 36.4813 41.2138C36.4588 41.8288 36.2563 43.6263 36.0938 45H43.0226ZM42.7501 31.5575C42.7501 31.5575 42.7551 31.5588 42.7638 31.5662C42.7589 31.5639 42.7543 31.5609 42.7501 31.5575ZM33.7501 50V47.5H43.7501V50H33.7501Z" fill="#F9FAF9"/>
</g>
</svg>
